<svg xmlns="http://www.w3.org/2000/svg" xmlns:xlink="http://www.w3.org/1999/xlink" width="375" viewBox="0 0 375 300" height="300" version="1.0"><defs><g id="g"><path d="M 3.421875 -25.484375 L 16.546875 -25.484375 L 16.546875 -23.015625 L 6.09375 -23.015625 L 6.09375 -13.703125 L 14.078125 -13.703125 L 14.078125 -11.21875 L 6.09375 -11.21875 L 6.09375 0 L 3.421875 0 Z M 3.421875 -25.484375"/></g><g id="h"><path d="M 3.421875 -25.484375 L 6.09375 -25.484375 L 6.09375 0 L 3.421875 0 Z M 3.421875 -25.484375"/></g><g id="i"><path d="M 1.90625 -0.765625 L 16.59375 -23.015625 L 2.46875 -23.015625 L 2.46875 -25.484375 L 20.921875 -25.484375 L 20.921875 -24.734375 L 6.234375 -2.46875 L 20.734375 -2.46875 L 20.734375 0 L 1.90625 0 Z M 1.90625 -0.765625"/></g><g id="k"><path d="M 3.421875 -25.484375 L 9.125 -25.484375 C 10.289062 -25.484375 11.367188 -25.316406 12.359375 -24.984375 C 13.347656 -24.660156 14.195312 -24.203125 14.90625 -23.609375 C 15.625 -23.015625 16.1875 -22.3125 16.59375 -21.5 C 17 -20.6875 17.203125 -19.796875 17.203125 -18.828125 C 17.203125 -17.660156 16.910156 -16.617188 16.328125 -15.703125 C 15.742188 -14.796875 14.914062 -14.050781 13.84375 -13.46875 C 15.320312 -12.9375 16.488281 -12.117188 17.34375 -11.015625 C 18.207031 -9.910156 18.640625 -8.625 18.640625 -7.15625 C 18.640625 -6.113281 18.421875 -5.160156 17.984375 -4.296875 C 17.554688 -3.429688 16.957031 -2.675781 16.1875 -2.03125 C 15.414062 -1.382812 14.488281 -0.882812 13.40625 -0.53125 C 12.332031 -0.175781 11.160156 0 9.890625 0 L 3.421875 0 Z M 9.890625 -2.46875 C 11.710938 -2.46875 13.179688 -2.90625 14.296875 -3.78125 C 15.421875 -4.65625 15.984375 -5.832031 15.984375 -7.3125 C 15.984375 -8.75 15.421875 -9.90625 14.296875 -10.78125 C 13.179688 -11.65625 11.710938 -12.09375 9.890625 -12.09375 L 6.09375 -12.09375 L 6.09375 -2.46875 Z M 9.125 -14.453125 C 10.78125 -14.453125 12.09375 -14.832031 13.0625 -15.59375 C 14.039062 -16.351562 14.53125 -17.382812 14.53125 -18.6875 C 14.53125 -20 14.035156 -21.046875 13.046875 -21.828125 C 12.054688 -22.617188 10.75 -23.015625 9.125 -23.015625 L 6.09375 -23.015625 L 6.09375 -14.453125 Z M 9.125 -14.453125"/></g><g id="l"><path d="M 12.40625 0.375 C 11.03125 0.375 9.78125 0.117188 8.65625 -0.390625 C 7.53125 -0.910156 6.566406 -1.640625 5.765625 -2.578125 C 4.960938 -3.523438 4.335938 -4.65625 3.890625 -5.96875 C 3.453125 -7.289062 3.234375 -8.75 3.234375 -10.34375 L 3.234375 -25.484375 L 5.890625 -25.484375 L 5.890625 -10.578125 C 5.890625 -9.304688 6.046875 -8.144531 6.359375 -7.09375 C 6.679688 -6.039062 7.132812 -5.144531 7.71875 -4.40625 C 8.300781 -3.675781 9.003906 -3.109375 9.828125 -2.703125 C 10.660156 -2.296875 11.582031 -2.09375 12.59375 -2.09375 C 13.601562 -2.09375 14.519531 -2.296875 15.34375 -2.703125 C 16.175781 -3.109375 16.882812 -3.675781 17.46875 -4.40625 C 18.050781 -5.144531 18.5 -6.039062 18.8125 -7.09375 C 19.132812 -8.144531 19.296875 -9.304688 19.296875 -10.578125 L 19.296875 -25.484375 L 21.875 -25.484375 L 21.875 -10.34375 C 21.875 -8.75 21.640625 -7.289062 21.171875 -5.96875 C 20.703125 -4.65625 20.046875 -3.523438 19.203125 -2.578125 C 18.367188 -1.640625 17.367188 -0.910156 16.203125 -0.390625 C 15.035156 0.117188 13.769531 0.375 12.40625 0.375 Z M 12.40625 0.375"/></g><g id="m"><path d="M 11.421875 -2.5 L 14.3125 -11.484375 L 15.671875 -11.484375 L 11.8125 0 L 10.96875 0 L 8.015625 -8.953125 L 5.0625 0 L 4.265625 0 L 0.40625 -11.484375 L 1.8125 -11.484375 L 4.671875 -2.546875 L 7.625 -11.484375 L 8.453125 -11.484375 Z M 11.421875 -2.5"/></g><g id="n"><path d="M 8.9375 -6.5625 L 8.9375 -11.484375 L 10.25 -11.484375 L 10.25 0 L 8.9375 0 L 8.9375 -5.328125 L 2.875 -5.328125 L 2.875 0 L 1.5625 0 L 1.5625 -11.484375 L 2.875 -11.484375 L 2.875 -6.5625 Z M 8.9375 -6.5625"/></g><g id="o"><path d="M 2.875 -5.328125 L 2.875 -1.234375 L 7.796875 -1.234375 L 7.796875 0 L 1.5625 0 L 1.5625 -11.484375 L 7.625 -11.484375 L 7.625 -10.25 L 2.875 -10.25 L 2.875 -6.5625 L 7.46875 -6.5625 L 7.46875 -5.328125 Z M 2.875 -5.328125"/></g><g id="p"><path d="M 10.125 -2.421875 L 10.125 -11.484375 L 11.40625 -11.484375 L 11.40625 0 L 10.578125 0 L 2.84375 -9.0625 L 2.84375 0 L 1.5625 0 L 1.5625 -11.484375 L 2.375 -11.484375 Z M 10.125 -2.421875"/></g><g id="r"><path d="M 2.953125 0 L 1.640625 0 L 1.640625 -11.484375 L 2.953125 -11.484375 Z M 2.953125 0"/></g><g id="s"><path d="M 4.671875 0 L 3.359375 0 L 3.359375 -10.25 L 0.40625 -10.25 L 0.40625 -11.484375 L 7.625 -11.484375 L 7.625 -10.25 L 4.671875 -10.25 Z M 4.671875 0"/></g><g id="t"><path d="M 6.75 0.171875 C 5.6875 0.171875 4.707031 -0.0859375 3.8125 -0.609375 C 2.914062 -1.140625 2.207031 -1.859375 1.6875 -2.765625 C 1.164062 -3.679688 0.90625 -4.675781 0.90625 -5.75 C 0.90625 -6.8125 1.164062 -7.796875 1.6875 -8.703125 C 2.207031 -9.617188 2.914062 -10.335938 3.8125 -10.859375 C 4.707031 -11.390625 5.6875 -11.65625 6.75 -11.65625 C 7.957031 -11.65625 9.019531 -11.320312 9.9375 -10.65625 C 10.863281 -9.988281 11.554688 -9.085938 12.015625 -7.953125 L 10.609375 -7.953125 C 10.234375 -8.710938 9.707031 -9.3125 9.03125 -9.75 C 8.351562 -10.195312 7.59375 -10.421875 6.75 -10.421875 C 5.9375 -10.421875 5.1875 -10.210938 4.5 -9.796875 C 3.8125 -9.378906 3.265625 -8.8125 2.859375 -8.09375 C 2.460938 -7.382812 2.265625 -6.601562 2.265625 -5.75 C 2.265625 -4.882812 2.460938 -4.09375 2.859375 -3.375 C 3.265625 -2.664062 3.8125 -2.101562 4.5 -1.6875 C 5.1875 -1.269531 5.9375 -1.0625 6.75 -1.0625 C 7.632812 -1.0625 8.414062 -1.28125 9.09375 -1.71875 C 9.769531 -2.164062 10.300781 -2.769531 10.6875 -3.53125 L 12.078125 -3.53125 C 11.617188 -2.394531 10.925781 -1.492188 10 -0.828125 C 9.070312 -0.160156 7.988281 0.171875 6.75 0.171875 Z M 6.75 0.171875"/></g><g id="u"><path d="M 6.828125 0.171875 C 5.742188 0.171875 4.75 -0.0859375 3.84375 -0.609375 C 2.9375 -1.140625 2.21875 -1.859375 1.6875 -2.765625 C 1.164062 -3.679688 0.90625 -4.675781 0.90625 -5.75 C 0.90625 -6.8125 1.164062 -7.796875 1.6875 -8.703125 C 2.21875 -9.617188 2.9375 -10.335938 3.84375 -10.859375 C 4.75 -11.390625 5.742188 -11.65625 6.828125 -11.65625 C 7.910156 -11.65625 8.90625 -11.390625 9.8125 -10.859375 C 10.71875 -10.335938 11.429688 -9.617188 11.953125 -8.703125 C 12.484375 -7.796875 12.75 -6.8125 12.75 -5.75 C 12.75 -4.675781 12.484375 -3.679688 11.953125 -2.765625 C 11.429688 -1.859375 10.71875 -1.140625 9.8125 -0.609375 C 8.90625 -0.0859375 7.910156 0.171875 6.828125 0.171875 Z M 6.828125 -1.0625 C 7.660156 -1.0625 8.421875 -1.269531 9.109375 -1.6875 C 9.804688 -2.101562 10.359375 -2.664062 10.765625 -3.375 C 11.179688 -4.09375 11.390625 -4.882812 11.390625 -5.75 C 11.390625 -6.601562 11.179688 -7.382812 10.765625 -8.09375 C 10.359375 -8.8125 9.804688 -9.378906 9.109375 -9.796875 C 8.421875 -10.210938 7.660156 -10.421875 6.828125 -10.421875 C 5.992188 -10.421875 5.226562 -10.210938 4.53125 -9.796875 C 3.84375 -9.378906 3.289062 -8.8125 2.875 -8.09375 C 2.46875 -7.382812 2.265625 -6.601562 2.265625 -5.75 C 2.265625 -4.882812 2.46875 -4.09375 2.875 -3.375 C 3.289062 -2.664062 3.84375 -2.101562 4.53125 -1.6875 C 5.226562 -1.269531 5.992188 -1.0625 6.828125 -1.0625 Z M 6.828125 -1.0625"/></g><g id="v"><path d="M 5.6875 0.171875 C 4.832031 0.171875 4.082031 -0.0078125 3.4375 -0.375 C 2.789062 -0.75 2.285156 -1.269531 1.921875 -1.9375 C 1.566406 -2.601562 1.390625 -3.367188 1.390625 -4.234375 L 1.390625 -11.484375 L 2.703125 -11.484375 L 2.703125 -4.234375 C 2.703125 -3.285156 2.96875 -2.519531 3.5 -1.9375 C 4.039062 -1.351562 4.769531 -1.0625 5.6875 -1.0625 C 6.613281 -1.0625 7.34375 -1.351562 7.875 -1.9375 C 8.40625 -2.519531 8.671875 -3.285156 8.671875 -4.234375 L 8.671875 -11.484375 L 9.984375 -11.484375 L 9.984375 -4.234375 C 9.984375 -3.367188 9.804688 -2.601562 9.453125 -1.9375 C 9.097656 -1.269531 8.59375 -0.75 7.9375 -0.375 C 7.289062 -0.0078125 6.539062 0.171875 5.6875 0.171875 Z M 5.6875 0.171875"/></g><g id="w"><path d="M 4.703125 0.171875 C 3.921875 0.171875 3.238281 0.0234375 2.65625 -0.265625 C 2.070312 -0.566406 1.625 -0.976562 1.3125 -1.5 C 1.007812 -2.03125 0.847656 -2.625 0.828125 -3.28125 L 2.140625 -3.28125 C 2.160156 -2.632812 2.394531 -2.101562 2.84375 -1.6875 C 3.289062 -1.269531 3.910156 -1.0625 4.703125 -1.0625 C 5.421875 -1.0625 5.988281 -1.226562 6.40625 -1.5625 C 6.820312 -1.90625 7.03125 -2.367188 7.03125 -2.953125 C 7.03125 -3.398438 6.910156 -3.769531 6.671875 -4.0625 C 6.441406 -4.351562 6.148438 -4.578125 5.796875 -4.734375 C 5.453125 -4.898438 4.984375 -5.078125 4.390625 -5.265625 C 3.671875 -5.515625 3.097656 -5.742188 2.671875 -5.953125 C 2.242188 -6.171875 1.875 -6.492188 1.5625 -6.921875 C 1.257812 -7.347656 1.109375 -7.910156 1.109375 -8.609375 C 1.109375 -9.179688 1.257812 -9.695312 1.5625 -10.15625 C 1.875 -10.613281 2.300781 -10.976562 2.84375 -11.25 C 3.382812 -11.519531 3.992188 -11.65625 4.671875 -11.65625 C 5.316406 -11.65625 5.90625 -11.515625 6.4375 -11.234375 C 6.96875 -10.953125 7.390625 -10.5625 7.703125 -10.0625 C 8.023438 -9.570312 8.191406 -9.035156 8.203125 -8.453125 L 6.890625 -8.453125 C 6.867188 -9.023438 6.644531 -9.492188 6.21875 -9.859375 C 5.789062 -10.234375 5.257812 -10.421875 4.625 -10.421875 C 4 -10.421875 3.484375 -10.265625 3.078125 -9.953125 C 2.679688 -9.648438 2.484375 -9.203125 2.484375 -8.609375 C 2.484375 -8.191406 2.59375 -7.847656 2.8125 -7.578125 C 3.039062 -7.304688 3.320312 -7.09375 3.65625 -6.9375 C 3.988281 -6.78125 4.445312 -6.601562 5.03125 -6.40625 C 5.75 -6.164062 6.332031 -5.929688 6.78125 -5.703125 C 7.238281 -5.472656 7.625 -5.132812 7.9375 -4.6875 C 8.25 -4.25 8.40625 -3.671875 8.40625 -2.953125 C 8.40625 -2.359375 8.242188 -1.820312 7.921875 -1.34375 C 7.597656 -0.875 7.15625 -0.503906 6.59375 -0.234375 C 6.039062 0.0351562 5.410156 0.171875 4.703125 0.171875 Z M 4.703125 0.171875"/></g><g id="x"><path d="M 4.609375 -6.296875 L 7.484375 -11.484375 L 8.9375 -11.484375 L 5.25 -5 L 5.25 0 L 3.9375 0 L 3.9375 -5 L 0.25 -11.484375 L 1.734375 -11.484375 Z M 4.609375 -6.296875"/></g><g id="y"><path d="M 6.96875 -11.484375 L 6.96875 -10.25 L 2.875 -10.25 L 2.875 -6.5625 L 6.8125 -6.5625 L 6.8125 -5.328125 L 2.875 -5.328125 L 2.875 0 L 1.5625 0 L 1.5625 -11.484375 Z M 6.96875 -11.484375"/></g><g id="z"><path d="M 8.28125 -10.671875 L 2.625 -1.234375 L 8.609375 -1.234375 L 8.609375 0 L 0.90625 0 L 0.90625 -0.828125 L 6.5625 -10.25 L 1.234375 -10.25 L 1.234375 -11.484375 L 8.28125 -11.484375 Z M 8.28125 -10.671875"/></g><g id="A"><path d="M 6.625 -6.15625 C 7.226562 -5.945312 7.710938 -5.59375 8.078125 -5.09375 C 8.453125 -4.59375 8.640625 -4.015625 8.640625 -3.359375 C 8.640625 -2.722656 8.472656 -2.148438 8.140625 -1.640625 C 7.816406 -1.128906 7.359375 -0.726562 6.765625 -0.4375 C 6.179688 -0.144531 5.515625 0 4.765625 0 L 1.5625 0 L 1.5625 -11.484375 L 4.59375 -11.484375 C 5.320312 -11.484375 5.953125 -11.351562 6.484375 -11.09375 C 7.023438 -10.84375 7.4375 -10.484375 7.71875 -10.015625 C 8.007812 -9.554688 8.15625 -9.035156 8.15625 -8.453125 C 8.15625 -7.972656 8.015625 -7.523438 7.734375 -7.109375 C 7.453125 -6.691406 7.082031 -6.375 6.625 -6.15625 Z M 2.875 -10.25 L 2.875 -6.640625 L 4.59375 -6.640625 C 5.269531 -6.640625 5.804688 -6.804688 6.203125 -7.140625 C 6.597656 -7.484375 6.796875 -7.921875 6.796875 -8.453125 C 6.796875 -8.972656 6.597656 -9.398438 6.203125 -9.734375 C 5.804688 -10.078125 5.269531 -10.25 4.59375 -10.25 Z M 4.765625 -1.234375 C 5.515625 -1.234375 6.117188 -1.4375 6.578125 -1.84375 C 7.046875 -2.257812 7.28125 -2.765625 7.28125 -3.359375 C 7.28125 -3.960938 7.046875 -4.46875 6.578125 -4.875 C 6.117188 -5.289062 5.515625 -5.5 4.765625 -5.5 L 2.875 -5.5 L 2.875 -1.234375 Z M 4.765625 -1.234375"/></g><clipPath id="a"><path d="M 189 86 L 195.472656 86 L 195.472656 92.558594 L 189 92.558594 Z M 189 86"/></clipPath><clipPath id="b"><path d="M 183 81.308594 L 189 81.308594 L 189 86 L 183 86 Z M 183 81.308594"/></clipPath><clipPath id="c"><path d="M 179.722656 87 L 184 87 L 184 92 L 179.722656 92 Z M 179.722656 87"/></clipPath><clipPath id="d"><path d="M 192.703125 49.285156 L 271.621094 49.285156 L 271.621094 184.21875 L 192.703125 184.21875 Z M 192.703125 49.285156"/></clipPath><clipPath id="e"><path d="M 103.625 49.285156 L 182.609375 49.285156 L 182.609375 184.21875 L 103.625 184.21875 Z M 103.625 49.285156"/></clipPath><clipPath id="f"><path d="M 207 7.96875 L 218 7.96875 L 218 18 L 207 18 Z M 207 7.96875"/></clipPath></defs><g clip-path="url(#a)"><path fill="#FFF" d="M 194.949219 89.746094 C 194.949219 91.011719 193.886719 92.042969 192.585938 92.042969 C 191.285156 92.042969 190.222656 91.011719 190.222656 89.746094 C 190.222656 88.476562 191.285156 87.445312 192.585938 87.445312 C 193.886719 87.445312 194.949219 88.476562 194.949219 89.746094 Z M 189.699219 89.746094 C 189.699219 91.292969 190.992188 92.554688 192.585938 92.554688 C 194.179688 92.554688 195.472656 91.292969 195.472656 89.746094 C 195.472656 88.195312 194.179688 86.933594 192.585938 86.933594 C 190.992188 86.933594 189.699219 88.195312 189.699219 89.746094"/></g><path fill="#FFF" d="M 192.585938 91.789062 L 192.585938 91.277344 C 191.71875 91.277344 191.011719 90.589844 191.011719 89.746094 L 190.484375 89.746094 C 190.484375 90.871094 191.429688 91.789062 192.585938 91.789062"/><path fill="#FFF" d="M 193.214844 91.695312 C 193.417969 91.632812 193.613281 91.539062 193.785156 91.421875 L 193.484375 91.003906 C 193.355469 91.089844 193.210938 91.160156 193.058594 91.207031 L 193.214844 91.695312"/><g clip-path="url(#b)"><path fill="#FFF" d="M 188.125 83.613281 C 188.125 84.601562 187.300781 85.402344 186.285156 85.402344 C 185.273438 85.402344 184.449219 84.601562 184.449219 83.613281 C 184.449219 82.628906 185.273438 81.824219 186.285156 81.824219 C 187.300781 81.824219 188.125 82.628906 188.125 83.613281 Z M 183.921875 83.613281 C 183.921875 84.882812 184.984375 85.914062 186.285156 85.914062 C 187.589844 85.914062 188.648438 84.882812 188.648438 83.613281 C 188.648438 82.347656 187.589844 81.316406 186.285156 81.316406 C 184.984375 81.316406 183.921875 82.347656 183.921875 83.613281"/></g><path fill="#FFF" d="M 187.121094 82.992188 L 187.535156 82.683594 C 187.378906 82.484375 187.175781 82.324219 186.941406 82.222656 L 186.722656 82.683594 C 186.878906 82.753906 187.015625 82.863281 187.121094 82.992188"/><path fill="#FFF" d="M 186.285156 82.59375 L 186.285156 82.082031 C 185.417969 82.082031 184.710938 82.769531 184.710938 83.613281 L 185.234375 83.613281 C 185.234375 83.050781 185.707031 82.59375 186.285156 82.59375"/><g clip-path="url(#c)"><path fill="#FFF" d="M 180.25 89.488281 C 180.25 88.785156 180.835938 88.210938 181.5625 88.210938 C 182.285156 88.210938 182.875 88.785156 182.875 89.488281 C 182.875 90.195312 182.285156 90.765625 181.5625 90.765625 C 180.835938 90.765625 180.25 90.195312 180.25 89.488281 Z M 183.398438 89.488281 C 183.398438 88.503906 182.574219 87.699219 181.5625 87.699219 C 180.546875 87.699219 179.722656 88.503906 179.722656 89.488281 C 179.722656 90.476562 180.546875 91.277344 181.5625 91.277344 C 182.574219 91.277344 183.398438 90.476562 183.398438 89.488281"/></g><path fill="#FFF" d="M 181.035156 89.488281 L 180.511719 89.488281 C 180.511719 90.054688 180.980469 90.511719 181.5625 90.511719 L 181.5625 90 C 181.273438 90 181.035156 89.769531 181.035156 89.488281"/><g clip-path="url(#d)"><path fill="#7ED957" d="M 234.734375 126.34375 C 230.875 127.378906 226.867188 126.835938 223.453125 124.859375 C 220.035156 122.878906 217.5625 119.664062 216.523438 115.855469 L 211.476562 97.007812 L 242.058594 97.007812 C 242.109375 97.007812 242.160156 96.960938 242.207031 96.960938 L 245.226562 108.1875 C 246.265625 111.996094 245.722656 116.003906 243.742188 119.417969 C 241.761719 122.878906 238.546875 125.304688 234.734375 126.34375 Z M 203.707031 68.070312 L 232.410156 60.40625 L 239.585938 87.117188 L 208.851562 87.117188 Z M 271.457031 167.746094 C 270.714844 165.074219 268.042969 163.542969 265.371094 164.234375 L 251.015625 168.09375 L 241.910156 134.160156 C 246.265625 131.980469 249.828125 128.667969 252.304688 124.363281 C 255.617188 118.675781 256.511719 111.996094 254.777344 105.617188 L 240.675781 53.03125 C 240.378906 51.796875 239.535156 50.707031 238.398438 50.066406 C 237.257812 49.371094 235.871094 49.226562 234.636719 49.570312 L 196.378906 59.8125 C 195.144531 60.15625 194.054688 60.949219 193.363281 62.085938 C 192.71875 63.222656 192.570312 64.609375 192.867188 65.84375 L 206.972656 118.425781 C 208.703125 124.808594 212.761719 130.152344 218.503906 133.417969 C 222.3125 135.644531 226.570312 136.78125 230.824219 136.78125 C 231.371094 136.78125 231.863281 136.679688 232.359375 136.679688 L 241.464844 170.613281 L 227.113281 174.472656 C 224.492188 175.164062 222.90625 177.886719 223.648438 180.507812 C 224.242188 182.734375 226.222656 184.21875 228.402344 184.21875 C 228.847656 184.21875 229.242188 184.167969 229.6875 184.019531 L 267.941406 173.78125 C 270.566406 173.085938 272.148438 170.367188 271.457031 167.746094"/></g><g clip-path="url(#e)"><path fill="#7ED957" d="M 166.390625 87.117188 L 135.65625 87.117188 L 142.832031 60.40625 L 171.539062 68.070312 Z M 158.71875 115.855469 C 157.679688 119.664062 155.207031 122.878906 151.792969 124.859375 C 148.328125 126.835938 144.367188 127.378906 140.507812 126.34375 C 136.695312 125.304688 133.480469 122.878906 131.5 119.417969 C 129.519531 116.003906 128.976562 111.996094 130.015625 108.1875 L 133.035156 96.960938 C 133.082031 96.960938 133.132812 97.007812 133.183594 97.007812 L 163.765625 97.007812 Z M 181.878906 62.085938 C 181.1875 60.949219 180.097656 60.15625 178.863281 59.8125 L 140.605469 49.570312 C 139.367188 49.226562 137.984375 49.371094 136.84375 50.066406 C 135.707031 50.707031 134.867188 51.796875 134.570312 53.03125 L 120.464844 105.617188 C 118.730469 111.996094 119.621094 118.675781 122.9375 124.363281 C 125.414062 128.667969 128.976562 131.980469 133.332031 134.160156 L 124.226562 168.09375 L 109.875 164.234375 C 107.25 163.542969 104.527344 165.074219 103.785156 167.746094 C 103.09375 170.367188 104.675781 173.085938 107.300781 173.78125 L 145.554688 184.019531 C 146 184.167969 146.398438 184.21875 146.84375 184.21875 C 149.019531 184.21875 151 182.734375 151.59375 180.507812 C 152.335938 177.886719 150.75 175.164062 148.128906 174.472656 L 133.777344 170.613281 L 142.882812 136.679688 C 143.378906 136.679688 143.871094 136.78125 144.417969 136.78125 C 148.671875 136.78125 152.929688 135.644531 156.738281 133.417969 C 162.480469 130.152344 166.539062 124.808594 168.269531 118.425781 L 182.375 65.84375 C 182.671875 64.609375 182.523438 63.222656 181.878906 62.085938"/></g><path fill="#7ED957" d="M 152.980469 42.597656 C 152.980469 45.328125 155.195312 47.542969 157.925781 47.542969 C 160.660156 47.542969 162.875 45.328125 162.875 42.597656 C 162.875 39.863281 160.660156 37.648438 157.925781 37.648438 C 155.195312 37.648438 152.980469 39.863281 152.980469 42.597656"/><path fill="#7ED957" d="M 212.367188 42.597656 C 215.097656 42.597656 217.316406 40.382812 217.316406 37.648438 C 217.316406 34.917969 215.097656 32.703125 212.367188 32.703125 C 209.632812 32.703125 207.417969 34.917969 207.417969 37.648438 C 207.417969 40.382812 209.632812 42.597656 212.367188 42.597656"/><path fill="#7ED957" d="M 172.773438 32.703125 C 175.507812 32.703125 177.722656 30.488281 177.722656 27.757812 C 177.722656 25.023438 175.507812 22.808594 172.773438 22.808594 C 170.042969 22.808594 167.824219 25.023438 167.824219 27.757812 C 167.824219 30.488281 170.042969 32.703125 172.773438 32.703125"/><g clip-path="url(#f)"><path fill="#7ED957" d="M 212.367188 17.863281 C 215.097656 17.863281 217.316406 15.648438 217.316406 12.917969 C 217.316406 10.183594 215.097656 7.96875 212.367188 7.96875 C 209.632812 7.96875 207.417969 10.183594 207.417969 12.917969 C 207.417969 15.648438 209.632812 17.863281 212.367188 17.863281"/></g><path fill="#7ED957" d="M 197.519531 27.757812 C 200.253906 27.757812 202.46875 25.542969 202.46875 22.808594 C 202.46875 20.078125 200.253906 17.863281 197.519531 17.863281 C 194.785156 17.863281 192.570312 20.078125 192.570312 22.808594 C 192.570312 25.542969 194.785156 27.757812 197.519531 27.757812"/><path fill="#7ED957" d="M 152.980469 22.808594 C 155.710938 22.808594 157.925781 20.59375 157.925781 17.863281 C 157.925781 15.132812 155.710938 12.917969 152.980469 12.917969 C 150.246094 12.917969 148.03125 15.132812 148.03125 17.863281 C 148.03125 20.59375 150.246094 22.808594 152.980469 22.808594"/><g fill="#545454" fill-opacity=".31"><use x="50.463" y="230.381" xmlns:xlink="http://www.w3.org/1999/xlink" xlink:href="#g" xlink:type="simple" xlink:actuate="onLoad" xlink:show="embed"/></g><g fill="#545454" fill-opacity=".31"><use x="81.552" y="230.381" xmlns:xlink="http://www.w3.org/1999/xlink" xlink:href="#h" xlink:type="simple" xlink:actuate="onLoad" xlink:show="embed"/></g><g fill="#545454" fill-opacity=".31"><use x="104.08" y="230.381" xmlns:xlink="http://www.w3.org/1999/xlink" xlink:href="#i" xlink:type="simple" xlink:actuate="onLoad" xlink:show="embed"/></g><g fill="#545454" fill-opacity=".31"><use x="139.925" y="230.381" xmlns:xlink="http://www.w3.org/1999/xlink" xlink:href="#i" xlink:type="simple" xlink:actuate="onLoad" xlink:show="embed"/></g><g fill="#545454" fill-opacity=".31"><use x="175.77" y="230.381" xmlns:xlink="http://www.w3.org/1999/xlink" xlink:href="#j" xlink:type="simple" xlink:actuate="onLoad" xlink:show="embed"/></g><g fill="#545454" fill-opacity=".31"><use x="197.157" y="230.381" xmlns:xlink="http://www.w3.org/1999/xlink" xlink:href="#k" xlink:type="simple" xlink:actuate="onLoad" xlink:show="embed"/></g><g fill="#545454" fill-opacity=".31"><use x="231.099" y="230.381" xmlns:xlink="http://www.w3.org/1999/xlink" xlink:href="#l" xlink:type="simple" xlink:actuate="onLoad" xlink:show="embed"/></g><g fill="#545454" fill-opacity=".31"><use x="269.228" y="230.381" xmlns:xlink="http://www.w3.org/1999/xlink" xlink:href="#i" xlink:type="simple" xlink:actuate="onLoad" xlink:show="embed"/></g><g fill="#545454" fill-opacity=".31"><use x="305.073" y="230.381" xmlns:xlink="http://www.w3.org/1999/xlink" xlink:href="#i" xlink:type="simple" xlink:actuate="onLoad" xlink:show="embed"/></g><g><use x="48.781" y="228.699" xmlns:xlink="http://www.w3.org/1999/xlink" xlink:href="#g" xlink:type="simple" xlink:actuate="onLoad" xlink:show="embed"/></g><g><use x="79.87" y="228.699" xmlns:xlink="http://www.w3.org/1999/xlink" xlink:href="#h" xlink:type="simple" xlink:actuate="onLoad" xlink:show="embed"/></g><g><use x="102.398" y="228.699" xmlns:xlink="http://www.w3.org/1999/xlink" xlink:href="#i" xlink:type="simple" xlink:actuate="onLoad" xlink:show="embed"/></g><g><use x="138.243" y="228.699" xmlns:xlink="http://www.w3.org/1999/xlink" xlink:href="#i" xlink:type="simple" xlink:actuate="onLoad" xlink:show="embed"/></g><g><use x="174.088" y="228.699" xmlns:xlink="http://www.w3.org/1999/xlink" xlink:href="#j" xlink:type="simple" xlink:actuate="onLoad" xlink:show="embed"/></g><g><use x="195.475" y="228.699" xmlns:xlink="http://www.w3.org/1999/xlink" xlink:href="#k" xlink:type="simple" xlink:actuate="onLoad" xlink:show="embed"/></g><g><use x="229.418" y="228.699" xmlns:xlink="http://www.w3.org/1999/xlink" xlink:href="#l" xlink:type="simple" xlink:actuate="onLoad" xlink:show="embed"/></g><g><use x="267.546" y="228.699" xmlns:xlink="http://www.w3.org/1999/xlink" xlink:href="#i" xlink:type="simple" xlink:actuate="onLoad" xlink:show="embed"/></g><g><use x="303.391" y="228.699" xmlns:xlink="http://www.w3.org/1999/xlink" xlink:href="#i" xlink:type="simple" xlink:actuate="onLoad" xlink:show="embed"/></g><g fill="#7ED957"><use x="56.552" y="267.175" xmlns:xlink="http://www.w3.org/1999/xlink" xlink:href="#m" xlink:type="simple" xlink:actuate="onLoad" xlink:show="embed"/></g><g fill="#7ED957"><use x="77.542" y="267.175" xmlns:xlink="http://www.w3.org/1999/xlink" xlink:href="#n" xlink:type="simple" xlink:actuate="onLoad" xlink:show="embed"/></g><g fill="#7ED957"><use x="94.269" y="267.175" xmlns:xlink="http://www.w3.org/1999/xlink" xlink:href="#o" xlink:type="simple" xlink:actuate="onLoad" xlink:show="embed"/></g><g fill="#7ED957"><use x="108.045" y="267.175" xmlns:xlink="http://www.w3.org/1999/xlink" xlink:href="#p" xlink:type="simple" xlink:actuate="onLoad" xlink:show="embed"/></g><g fill="#7ED957"><use x="125.919" y="267.175" xmlns:xlink="http://www.w3.org/1999/xlink" xlink:href="#q" xlink:type="simple" xlink:actuate="onLoad" xlink:show="embed"/></g><g fill="#7ED957"><use x="135.432" y="267.175" xmlns:xlink="http://www.w3.org/1999/xlink" xlink:href="#r" xlink:type="simple" xlink:actuate="onLoad" xlink:show="embed"/></g><g fill="#7ED957"><use x="144.946" y="267.175" xmlns:xlink="http://www.w3.org/1999/xlink" xlink:href="#s" xlink:type="simple" xlink:actuate="onLoad" xlink:show="embed"/></g><g fill="#7ED957"><use x="157.902" y="267.175" xmlns:xlink="http://www.w3.org/1999/xlink" xlink:href="#q" xlink:type="simple" xlink:actuate="onLoad" xlink:show="embed"/></g><g fill="#7ED957"><use x="167.415" y="267.175" xmlns:xlink="http://www.w3.org/1999/xlink" xlink:href="#t" xlink:type="simple" xlink:actuate="onLoad" xlink:show="embed"/></g><g fill="#7ED957"><use x="185.06" y="267.175" xmlns:xlink="http://www.w3.org/1999/xlink" xlink:href="#u" xlink:type="simple" xlink:actuate="onLoad" xlink:show="embed"/></g><g fill="#7ED957"><use x="203.624" y="267.175" xmlns:xlink="http://www.w3.org/1999/xlink" xlink:href="#v" xlink:type="simple" xlink:actuate="onLoad" xlink:show="embed"/></g><g fill="#7ED957"><use x="219.924" y="267.175" xmlns:xlink="http://www.w3.org/1999/xlink" xlink:href="#p" xlink:type="simple" xlink:actuate="onLoad" xlink:show="embed"/></g><g fill="#7ED957"><use x="237.799" y="267.175" xmlns:xlink="http://www.w3.org/1999/xlink" xlink:href="#s" xlink:type="simple" xlink:actuate="onLoad" xlink:show="embed"/></g><g fill="#7ED957"><use x="250.755" y="267.175" xmlns:xlink="http://www.w3.org/1999/xlink" xlink:href="#w" xlink:type="simple" xlink:actuate="onLoad" xlink:show="embed"/></g><g fill="#7ED957"><use x="264.892" y="267.175" xmlns:xlink="http://www.w3.org/1999/xlink" xlink:href="#q" xlink:type="simple" xlink:actuate="onLoad" xlink:show="embed"/></g><g fill="#7ED957"><use x="274.405" y="267.175" xmlns:xlink="http://www.w3.org/1999/xlink" xlink:href="#x" xlink:type="simple" xlink:actuate="onLoad" xlink:show="embed"/></g><g fill="#7ED957"><use x="288.509" y="267.175" xmlns:xlink="http://www.w3.org/1999/xlink" xlink:href="#u" xlink:type="simple" xlink:actuate="onLoad" xlink:show="embed"/></g><g fill="#7ED957"><use x="307.072" y="267.175" xmlns:xlink="http://www.w3.org/1999/xlink" xlink:href="#v" xlink:type="simple" xlink:actuate="onLoad" xlink:show="embed"/></g><g fill="#7ED957"><use x="130.216" y="287.425" xmlns:xlink="http://www.w3.org/1999/xlink" xlink:href="#y" xlink:type="simple" xlink:actuate="onLoad" xlink:show="embed"/></g><g fill="#7ED957"><use x="142.927" y="287.425" xmlns:xlink="http://www.w3.org/1999/xlink" xlink:href="#r" xlink:type="simple" xlink:actuate="onLoad" xlink:show="embed"/></g><g fill="#7ED957"><use x="152.44" y="287.425" xmlns:xlink="http://www.w3.org/1999/xlink" xlink:href="#z" xlink:type="simple" xlink:actuate="onLoad" xlink:show="embed"/></g><g fill="#7ED957"><use x="166.708" y="287.425" xmlns:xlink="http://www.w3.org/1999/xlink" xlink:href="#z" xlink:type="simple" xlink:actuate="onLoad" xlink:show="embed"/></g><g fill="#7ED957"><use x="180.975" y="287.425" xmlns:xlink="http://www.w3.org/1999/xlink" xlink:href="#q" xlink:type="simple" xlink:actuate="onLoad" xlink:show="embed"/></g><g fill="#7ED957"><use x="190.489" y="287.425" xmlns:xlink="http://www.w3.org/1999/xlink" xlink:href="#A" xlink:type="simple" xlink:actuate="onLoad" xlink:show="embed"/></g><g fill="#7ED957"><use x="204.871" y="287.425" xmlns:xlink="http://www.w3.org/1999/xlink" xlink:href="#v" xlink:type="simple" xlink:actuate="onLoad" xlink:show="embed"/></g><g fill="#7ED957"><use x="221.172" y="287.425" xmlns:xlink="http://www.w3.org/1999/xlink" xlink:href="#z" xlink:type="simple" xlink:actuate="onLoad" xlink:show="embed"/></g><g fill="#7ED957"><use x="235.44" y="287.425" xmlns:xlink="http://www.w3.org/1999/xlink" xlink:href="#z" xlink:type="simple" xlink:actuate="onLoad" xlink:show="embed"/></g></svg>