<svg xmlns="http://www.w3.org/2000/svg" xmlns:xlink="http://www.w3.org/1999/xlink" width="375" viewBox="0 0 375 375" height="375" version="1.0"><defs><g id="b"><path d="M 20.15625 -2.015625 C 22.0625 -1.066406 24.648438 0.382812 27.921875 2.34375 C 26.878906 4.269531 26.101562 5.875 25.59375 7.15625 C 25.09375 8.445312 24.710938 9.390625 24.453125 9.984375 C 24.191406 10.578125 24.03125 10.984375 23.96875 11.203125 L 21.78125 9.796875 C 16.75 6.785156 11.46875 4.25 5.9375 2.1875 C 4.101562 1.53125 2.378906 1.019531 0.765625 0.65625 C 7.234375 -7.53125 14.335938 -15.945312 22.078125 -24.59375 C 29.828125 -33.238281 36.367188 -40.492188 41.703125 -46.359375 L 55.6875 -40.328125 C 39.914062 -24.097656 30.367188 -14.050781 27.046875 -10.1875 C 23.722656 -6.320312 21.425781 -3.597656 20.15625 -2.015625 Z M 20.15625 -2.015625"/></g><g id="c"><path d="M 49.109375 -20.78125 C 51.023438 -25.007812 50.765625 -27.675781 48.328125 -28.78125 C 45.222656 -30.195312 41.734375 -29.9375 37.859375 -28 C 34.765625 -26.46875 31.539062 -23.910156 28.1875 -20.328125 C 25.507812 -17.390625 23.476562 -14.394531 22.09375 -11.34375 C 21.164062 -9.300781 21.335938 -7.375 22.609375 -5.5625 C 22.953125 -4.976562 23.453125 -4.535156 24.109375 -4.234375 C 26.453125 -3.171875 28.890625 -3.03125 31.421875 -3.8125 C 33.960938 -4.601562 36.375 -5.890625 38.65625 -7.671875 C 40.9375 -9.460938 43 -11.546875 44.84375 -13.921875 C 46.695312 -16.304688 48.117188 -18.59375 49.109375 -20.78125 Z M 62.140625 -20.671875 C 60.734375 -17.566406 58.726562 -14.332031 56.125 -10.96875 C 53.519531 -7.613281 50.738281 -4.703125 47.78125 -2.234375 C 44.820312 0.234375 41.769531 2.253906 38.625 3.828125 C 35.488281 5.398438 32.429688 6.5625 29.453125 7.3125 C 23.316406 8.800781 18.160156 8.601562 13.984375 6.71875 C 10.460938 5.113281 8.265625 2.582031 7.390625 -0.875 C 6.429688 -4.695312 7.164062 -9.273438 9.59375 -14.609375 C 12.226562 -20.410156 16.414062 -26.054688 22.15625 -31.546875 C 27.894531 -37.046875 33.96875 -41.035156 40.375 -43.515625 C 47.289062 -46.160156 53.34375 -46.304688 58.53125 -43.953125 C 62.8125 -42.003906 65.15625 -38.851562 65.5625 -34.5 C 65.863281 -30.976562 64.722656 -26.367188 62.140625 -20.671875 Z M 62.140625 -20.671875"/></g><g id="d"><path d="M 19.90625 -9.28125 L 13.03125 1.5 C 11.757812 1.289062 10.273438 1.046875 8.578125 0.765625 C 6.878906 0.484375 5.203125 0.191406 3.546875 -0.109375 C 1.890625 -0.410156 0.164062 -0.710938 -1.625 -1.015625 C 2.78125 -7.617188 6.503906 -13.203125 9.546875 -17.765625 C 12.597656 -22.335938 15.097656 -26.09375 17.046875 -29.03125 C 18.992188 -31.976562 20.914062 -34.898438 22.8125 -37.796875 C 24.71875 -40.691406 26.5625 -43.488281 28.34375 -46.1875 C 30.125 -48.882812 31.734375 -51.363281 33.171875 -53.625 C 43.285156 -51.3125 51.085938 -49.875 56.578125 -49.3125 C 54.492188 -44.164062 52.195312 -38.03125 49.6875 -30.90625 C 44.625 -16.738281 40.007812 -3.65625 35.84375 8.34375 C 34.15625 8.125 32.515625 7.890625 30.921875 7.640625 C 29.335938 7.390625 27.6875 7.148438 25.96875 6.921875 C 24.257812 6.691406 22.707031 6.476562 21.3125 6.28125 C 23.457031 1.332031 25.367188 -3.128906 27.046875 -7.109375 Z M 24.3125 -16.890625 L 30.375 -15.484375 C 30.46875 -15.796875 30.671875 -16.332031 30.984375 -17.09375 C 31.296875 -17.851562 31.664062 -18.71875 32.09375 -19.6875 C 34.257812 -25.28125 36.328125 -30.460938 38.296875 -35.234375 L 41.03125 -42.21875 L 39.71875 -42.53125 Z M 24.3125 -16.890625"/></g><g id="e"><path d="M 23.890625 -59.71875 L 26.265625 -59.3125 C 27.378906 -59.113281 30.488281 -58.6875 35.59375 -58.03125 C 35.6875 -53.945312 35.773438 -50.140625 35.859375 -46.609375 C 35.929688 -36.492188 36.066406 -29.976562 36.265625 -27.0625 C 36.671875 -28.175781 37.140625 -29.453125 37.671875 -30.890625 C 38.203125 -32.335938 38.769531 -33.847656 39.375 -35.421875 C 39.988281 -36.992188 40.609375 -38.597656 41.234375 -40.234375 C 42.234375 -42.847656 44.289062 -48.082031 47.40625 -55.9375 L 57.921875 -55.421875 C 47.171875 -28.628906 40.023438 -9.300781 36.484375 2.5625 C 35.816406 2.445312 33.457031 2.53125 29.40625 2.8125 C 25.363281 3.09375 22.941406 3.300781 22.140625 3.4375 C 23.597656 -11.851562 24.203125 -22.75 23.953125 -29.25 C 23.609375 -28.21875 23.179688 -27.023438 22.671875 -25.671875 C 22.160156 -24.316406 21.628906 -22.867188 21.078125 -21.328125 C 19.003906 -15.492188 16.390625 -8.484375 13.234375 -0.296875 L 0.34375 0.5 C 11.726562 -28.351562 18.941406 -48.554688 21.984375 -60.109375 C 22.753906 -59.929688 23.390625 -59.800781 23.890625 -59.71875 Z M 23.890625 -59.71875"/></g><g id="f"><path d="M 12.234375 6.046875 C 12.859375 2.566406 13.46875 -0.0664062 14.0625 -1.859375 C 9.46875 -2.304688 5.328125 -4.800781 1.640625 -9.34375 L 7.671875 -21.90625 C 8.472656 -20.351562 9.523438 -19 10.828125 -17.84375 C 13.023438 -15.800781 14.863281 -14.789062 16.34375 -14.8125 C 17.832031 -14.832031 19.171875 -15.320312 20.359375 -16.28125 C 21.554688 -17.25 22.140625 -18.90625 22.109375 -21.25 C 22.085938 -22.875 20.800781 -24.925781 18.25 -27.40625 C 17.164062 -28.457031 15.972656 -29.5625 14.671875 -30.71875 C 13.367188 -31.875 12.179688 -33.085938 11.109375 -34.359375 C 8.554688 -37.347656 7.257812 -40.210938 7.21875 -42.953125 C 7.175781 -46.304688 8.585938 -49.476562 11.453125 -52.46875 C 13.929688 -55.132812 17.222656 -57.359375 21.328125 -59.140625 C 21.910156 -62.054688 22.707031 -65.253906 23.71875 -68.734375 L 35.453125 -70.234375 L 32.125 -61.546875 C 37.382812 -61.453125 40.816406 -59.570312 42.421875 -55.90625 C 43.003906 -54.570312 43.304688 -53.25 43.328125 -51.9375 C 43.347656 -50.625 43.300781 -49.585938 43.1875 -48.828125 C 43.082031 -48.078125 42.988281 -47.28125 42.90625 -46.4375 L 30.609375 -43.515625 L 30.90625 -45.4375 C 30.882812 -47.164062 30.535156 -48.398438 29.859375 -49.140625 C 29.179688 -49.890625 28.476562 -50.257812 27.75 -50.25 C 27.019531 -50.25 26.347656 -50.117188 25.734375 -49.859375 C 25.128906 -49.597656 24.546875 -49.238281 23.984375 -48.78125 C 22.828125 -47.875 22.253906 -46.832031 22.265625 -45.65625 C 22.285156 -44.488281 22.691406 -43.503906 23.484375 -42.703125 C 24.285156 -41.898438 25.265625 -41.070312 26.421875 -40.21875 C 27.578125 -39.375 28.828125 -38.441406 30.171875 -37.421875 C 31.523438 -36.398438 32.773438 -35.203125 33.921875 -33.828125 C 36.703125 -30.679688 38.125 -26.953125 38.1875 -22.640625 C 38.25 -18.054688 36.875 -14.015625 34.0625 -10.515625 C 31.375 -7.128906 27.910156 -4.707031 23.671875 -3.25 C 23.179688 0.832031 22.941406 3.546875 22.953125 4.890625 Z M 12.234375 6.046875"/></g><g id="g"><path d="M 0.703125 0.078125 C 2.546875 -29.859375 3.234375 -51.117188 2.765625 -63.703125 C 8.140625 -64.003906 12.765625 -64.425781 16.640625 -64.96875 C 15.546875 -53.070312 14.878906 -44.742188 14.640625 -39.984375 L 22.875 -42.140625 C 23.101562 -46.222656 23.269531 -50.203125 23.375 -54.078125 C 23.476562 -57.960938 23.75 -61.976562 24.1875 -66.125 C 26.34375 -66.800781 28.65625 -67.410156 31.125 -67.953125 C 33.59375 -68.503906 35.289062 -68.875 36.21875 -69.0625 L 37.609375 -69.421875 C 36.140625 -60.179688 35.21875 -47.382812 34.84375 -31.03125 C 34.582031 -23.65625 34.453125 -16.132812 34.453125 -8.46875 L 21.359375 -5.109375 C 21.617188 -8.585938 21.832031 -11.859375 22 -14.921875 C 22.164062 -17.992188 22.332031 -21.035156 22.5 -24.046875 C 22.664062 -27.066406 22.796875 -29.65625 22.890625 -31.8125 L 14.671875 -29.90625 C 14.398438 -22.707031 13.984375 -14.234375 13.421875 -4.484375 Z M 0.703125 0.078125"/></g><g id="h"><path d="M 11.96875 -18.421875 L 11.859375 -5.625 C 10.660156 -5.125 9.265625 -4.546875 7.671875 -3.890625 C 6.085938 -3.234375 4.507812 -2.59375 2.9375 -1.96875 C 1.375 -1.34375 -0.238281 -0.6875 -1.90625 0 C -1.675781 -7.945312 -1.472656 -14.660156 -1.296875 -20.140625 C -1.128906 -25.628906 -1 -30.132812 -0.90625 -33.65625 C -0.8125 -37.1875 -0.722656 -40.679688 -0.640625 -44.140625 C -0.554688 -47.609375 -0.472656 -50.957031 -0.390625 -54.1875 C -0.304688 -57.425781 -0.257812 -60.382812 -0.25 -63.0625 C 9.550781 -66.4375 16.929688 -69.347656 21.890625 -71.796875 C 22.847656 -66.316406 24.144531 -59.894531 25.78125 -52.53125 C 28.988281 -37.832031 32 -24.289062 34.8125 -11.90625 C 33.269531 -11.195312 31.757812 -10.523438 30.28125 -9.890625 C 28.800781 -9.265625 27.273438 -8.59375 25.703125 -7.875 C 24.128906 -7.164062 22.695312 -6.523438 21.40625 -5.953125 C 20.601562 -11.285156 19.863281 -16.085938 19.1875 -20.359375 Z M 11.703125 -27.203125 L 17.5625 -29.21875 C 17.476562 -29.539062 17.367188 -30.101562 17.234375 -30.90625 C 17.109375 -31.707031 16.960938 -32.640625 16.796875 -33.703125 C 15.671875 -39.585938 14.6875 -45.078125 13.84375 -50.171875 L 12.46875 -57.53125 L 11.1875 -57.109375 Z M 11.703125 -27.203125"/></g><g id="i"><path d="M 23.703125 -11.140625 C 14.367188 -22.597656 9.253906 -29.226562 8.359375 -31.03125 L 7.453125 -30.296875 C 8.015625 -27.742188 8.75 -24.175781 9.65625 -19.59375 C 10.5625 -15.019531 11.296875 -11.367188 11.859375 -8.640625 L 0.328125 -0.046875 C -4.910156 -28.265625 -9.160156 -48.078125 -12.421875 -59.484375 C -7.179688 -63.804688 -0.835938 -67.488281 6.609375 -70.53125 C 12.191406 -72.8125 16.296875 -72.222656 18.921875 -68.765625 C 19.722656 -67.703125 20.484375 -66.289062 21.203125 -64.53125 C 21.921875 -62.769531 22.332031 -60.71875 22.4375 -58.375 C 22.550781 -56.03125 22.367188 -53.675781 21.890625 -51.3125 C 20.835938 -46.476562 18.835938 -42.28125 15.890625 -38.71875 C 19.671875 -35.195312 23.132812 -31.832031 26.28125 -28.625 C 29.4375 -25.414062 32.097656 -22.707031 34.265625 -20.5 Z M 5.765625 -57.3125 L 2.375 -55.84375 L 4.953125 -42.15625 C 6.953125 -43.195312 9.03125 -45.578125 11.1875 -49.296875 C 13.4375 -53.109375 14.234375 -55.816406 13.578125 -57.421875 C 12.960938 -58.921875 11.191406 -59.195312 8.265625 -58.25 C 7.410156 -57.957031 6.578125 -57.644531 5.765625 -57.3125 Z M 5.765625 -57.3125"/></g><g id="j"><path d="M 34.859375 -22.671875 C 32.453125 -21.453125 29.972656 -20.117188 27.421875 -18.671875 C 24.878906 -17.222656 22.226562 -15.644531 19.46875 -13.9375 C 14.925781 -19.65625 10.097656 -25.882812 4.984375 -32.625 L 4.484375 -30.3125 C 4.992188 -28.613281 5.660156 -26.550781 6.484375 -24.125 C 7.316406 -21.695312 8.144531 -19.253906 8.96875 -16.796875 C 9.789062 -14.347656 10.671875 -11.71875 11.609375 -8.90625 L 0.546875 -0.234375 C -7.992188 -27.503906 -15.175781 -47.453125 -21 -60.078125 C -19.757812 -60.597656 -18.398438 -61.226562 -16.921875 -61.96875 C -15.441406 -62.71875 -13.992188 -63.425781 -12.578125 -64.09375 C -11.160156 -64.757812 -9.695312 -65.523438 -8.1875 -66.390625 C -8.132812 -66.171875 -8.003906 -65.765625 -7.796875 -65.171875 C -7.597656 -64.585938 -7.347656 -63.863281 -7.046875 -63 C -6.742188 -62.144531 -6.410156 -61.191406 -6.046875 -60.140625 C -5.679688 -59.097656 -5.207031 -57.695312 -4.625 -55.9375 C -4.039062 -54.175781 -3.21875 -51.800781 -2.15625 -48.8125 L -1.78125 -49.125 C -1.601562 -51.988281 -1.441406 -55 -1.296875 -58.15625 C -1.003906 -64.425781 -0.773438 -68.769531 -0.609375 -71.1875 C 4.742188 -74.800781 9.382812 -78.171875 13.3125 -81.296875 C 11.375 -65.035156 10.265625 -53.519531 9.984375 -46.75 C 13.898438 -42.34375 17.941406 -38.21875 22.109375 -34.375 C 26.285156 -30.539062 30.535156 -26.640625 34.859375 -22.671875 Z M 34.859375 -22.671875"/></g><clipPath id="a"><path d="M 98 33.632812 L 282.179688 33.632812 L 282.179688 241.382812 L 98 241.382812 Z M 98 33.632812"/></clipPath></defs><g clip-path="url(#a)"><path fill="#1F7DD5" d="M 194.589844 241.328125 C 193.988281 241.332031 193.375 241.335938 192.734375 241.335938 C 183.125 241.335938 173.449219 240.777344 163.964844 239.675781 C 134.277344 236.21875 114.4375 228.410156 114.253906 228.332031 L 111.3125 227.164062 L 111.363281 223.917969 C 111.621094 206.160156 106.40625 178.195312 101.207031 161.417969 C 96.171875 145.183594 98.046875 128.394531 106.632812 112.863281 C 113.585938 100.273438 116.773438 86.207031 118.378906 60.980469 C 119.015625 50.976562 121.058594 43.550781 124.441406 38.914062 C 126.828125 35.640625 130.6875 33.691406 134.765625 33.691406 C 136.84375 33.691406 138.90625 34.207031 140.730469 35.175781 C 160.125 45.476562 207.371094 88.507812 213.332031 93.964844 C 216.410156 95.851562 225.972656 101.816406 229.789062 105.640625 C 233.894531 109.746094 235.011719 119.332031 235.300781 125.085938 C 266.109375 161.070312 281.03125 219.445312 281.179688 220.03125 L 282.183594 224.066406 L 278.332031 225.570312 C 253.160156 235.382812 226.203125 240.664062 198.203125 241.273438 Z M 194.589844 241.328125"/></g><path fill="#EAEAEA" d="M 213.558594 134.703125 C 208.917969 126.53125 201.101562 116.351562 190.859375 105.117188 C 190.859375 105.117188 190.855469 105.117188 190.855469 105.113281 C 190.855469 105.113281 190.855469 105.109375 190.847656 105.109375 C 191.804688 108.847656 193.058594 114.324219 193.058594 117.089844 C 193.058594 121.492188 187.613281 134.136719 187.382812 134.675781 L 184.730469 140.816406 L 185.5 134.167969 C 185.507812 134.089844 186.4375 125.921875 185.503906 120.140625 C 184.617188 114.636719 182.28125 98.179688 181.929688 95.699219 C 173.148438 86.765625 163.644531 78.027344 155.558594 71.425781 C 155.460938 73.886719 155.367188 78.117188 155.617188 80.664062 C 156.019531 84.660156 151.097656 96.773438 150.535156 98.144531 L 148.242188 103.71875 L 148.640625 97.703125 C 148.648438 97.558594 149.570312 83.171875 147.894531 78.589844 C 146.324219 74.289062 147.351562 67.507812 147.734375 65.402344 C 145.039062 63.484375 142.820312 62.105469 141.15625 61.324219 C 137.457031 59.59375 134.042969 59.292969 131.007812 60.425781 C 126.414062 62.140625 124.039062 66.621094 123.625 67.460938 C 123.625 67.464844 123.625 67.464844 123.625 67.464844 L 123.625 67.46875 C 121.824219 89.871094 118.421875 103.289062 111.613281 115.613281 C 103.804688 129.75 102.085938 145.007812 106.648438 159.730469 C 111.910156 176.703125 117.199219 204.945312 117.066406 223.308594 C 120.578125 224.621094 138.566406 230.992188 164.691406 234.027344 C 174.066406 235.113281 185.195312 235.835938 197.566406 235.597656 C 197.570312 235.597656 197.574219 235.597656 197.574219 235.597656 C 217.066406 231.972656 231.285156 223.246094 239.832031 209.660156 C 240.875 208.007812 241.804688 206.320312 242.636719 204.605469 C 234.648438 182.332031 222.679688 150.757812 213.558594 134.703125 Z M 167.492188 92.8125 C 168.886719 93.375 170.152344 94.257812 171.222656 95.324219 L 171.960938 96.167969 C 172.21875 96.453125 172.410156 96.769531 172.625 97.074219 C 173.0625 97.683594 173.382812 98.355469 173.695312 99.027344 C 173.871094 99.351562 173.96875 99.707031 174.09375 100.058594 C 174.207031 100.402344 174.308594 100.757812 174.40625 101.105469 C 174.550781 101.824219 174.667969 102.550781 174.710938 103.277344 C 174.253906 102.683594 173.894531 102.078125 173.515625 101.488281 C 173.316406 101.203125 173.113281 100.917969 172.925781 100.628906 C 166.511719 101.617188 165.535156 93.578125 165.519531 93.410156 C 164.773438 92.984375 163.992188 92.597656 163.132812 92.261719 C 164.582031 91.976562 166.109375 92.261719 167.492188 92.8125 Z M 214.667969 205.578125 C 196.320312 210.425781 180.632812 212.042969 167.871094 212.042969 C 158.367188 212.042969 150.484375 211.144531 144.328125 210.019531 C 128.632812 207.140625 120.644531 202.308594 120.308594 202.105469 L 119.960938 201.886719 L 119.863281 201.484375 C 115.761719 183.992188 114.300781 178.136719 113.433594 174.632812 C 112.320312 170.164062 112.089844 169.230469 108.480469 152.753906 C 104.5625 134.828125 112.082031 126.644531 119.074219 122.933594 C 122.933594 120.882812 127.421875 119.910156 132.039062 120.121094 C 147.03125 120.789062 160.75 125.652344 172.820312 134.582031 C 182.445312 141.707031 191.042969 151.414062 198.367188 163.433594 C 210.808594 183.855469 215.339844 204.207031 215.382812 204.410156 L 215.582031 205.339844 Z M 212.8125 204.027344 C 181.898438 211.980469 158.808594 210.648438 144.8125 208.101562 C 132.023438 205.777344 124.328125 202.039062 122.054688 200.816406 L 125.242188 192.460938 L 130.828125 203.273438 L 136.621094 193.734375 L 143.078125 206.152344 L 149.21875 195.390625 L 155.269531 207.976562 L 162.910156 196.382812 L 170.339844 208.234375 L 178.273438 196.617188 L 186.015625 207.835938 L 193.363281 195.707031 L 200.515625 205.722656 L 206.285156 194.429688 Z M 200.714844 183.695312 L 200.714844 173.46875 L 191.390625 172.304688 L 190.820312 159.996094 L 179.632812 161.035156 L 178.058594 146.476562 L 164.964844 150.929688 L 159.660156 135.253906 L 148.753906 145.003906 L 141.765625 129.160156 L 132.148438 143.332031 L 123.519531 127.535156 L 119.105469 143.726562 L 112.164062 135.941406 L 112.164062 147.386719 L 109.4375 145.136719 C 108.902344 133.359375 114.621094 127.542969 120.007812 124.675781 C 123.554688 122.796875 127.6875 121.902344 131.957031 122.089844 C 165.003906 123.570312 185.382812 145.925781 196.660156 164.417969 C 200.996094 171.523438 204.355469 178.625 206.890625 184.847656 Z M 200.714844 183.695312"/><path fill="#1B3067" d="M 228.546875 112.925781 L 231.441406 128.207031 C 247.695312 147.21875 251.320312 160.363281 251.320312 160.363281 L 251.320312 196.105469 L 243.804688 202.03125 C 246.328125 177.617188 231.824219 146.84375 231.824219 146.84375 L 240.125 153.253906 C 231.152344 137.550781 219.589844 130.230469 219.589844 130.230469 C 228.964844 124.820312 225.769531 109.667969 225.769531 109.667969 C 228.589844 110.355469 228.546875 112.925781 228.546875 112.925781 Z M 156.367188 169.921875 C 154.886719 173.28125 152.164062 179.863281 150.457031 186.441406 C 150.457031 186.441406 146.3125 174.90625 149.25 162.753906 C 148.808594 162.371094 148.359375 162 147.917969 161.636719 C 146.90625 163.835938 143.332031 171.839844 141.246094 179.855469 C 141.246094 179.855469 137.167969 168.496094 139.96875 156.453125 C 139.464844 156.199219 138.957031 155.96875 138.445312 155.746094 C 136.917969 159.296875 134.503906 165.324219 132.9375 171.355469 C 132.9375 171.355469 130.035156 163.277344 130.808594 153.519531 C 130.445312 153.472656 130.089844 153.421875 129.726562 153.386719 C 120.152344 152.390625 113.457031 157.171875 111.769531 158.53125 C 114.097656 169.132812 114.40625 170.355469 115.351562 174.171875 C 116.167969 177.460938 117.503906 182.824219 121.058594 197.917969 L 124.976562 187.648438 L 130.972656 199.257812 L 136.757812 189.726562 L 143.160156 202.03125 L 149.375 191.148438 L 153.53125 199.800781 C 157.457031 188.695312 161.132812 179.34375 162.011719 177.113281 C 160.140625 174.507812 158.257812 172.113281 156.367188 169.921875 Z M 204.566406 92.152344 L 196.320312 92.152344 L 212.816406 100.351562 Z M 123.914062 63.375 C 123.914062 63.375 127.617188 51.839844 133.792969 51.519531 C 139.972656 51.203125 148.074219 57.445312 148.074219 57.445312 C 148.074219 57.445312 143.601562 50.289062 135.996094 46.761719 C 135.996094 46.761719 142.527344 48.097656 146.914062 51.523438 C 146.914062 51.523438 144.894531 44.484375 139.4375 40.964844 L 136.886719 38.453125 C 136.886719 38.453125 128.96875 38.261719 126.652344 44.542969 C 124.332031 50.824219 123.179688 56.039062 123.179688 56.039062 Z M 187.886719 101.914062 L 187.882812 101.664062 L 187.882812 101.65625 L 187.839844 101.507812 L 187.921875 101.230469 C 187.953125 101.125 188.753906 98.453125 190.972656 94.832031 C 191.515625 93.941406 191.710938 92.894531 191.539062 91.878906 L 189.535156 80.367188 L 189.53125 80.367188 C 187.261719 78.382812 184.886719 76.324219 182.433594 74.214844 C 184.226562 79.527344 187.039062 88.566406 186.253906 90.929688 C 185.484375 93.226562 184.402344 94.832031 183.886719 95.515625 C 184.289062 98.328125 186.578125 114.414062 187.449219 119.832031 C 187.875 122.496094 187.933594 125.574219 187.867188 128.210938 C 189.441406 124.066406 191.082031 119.21875 191.082031 117.089844 C 191.082031 113.347656 188.433594 103.644531 187.984375 102.023438 Z M 156.992188 53.269531 C 155.410156 52.042969 153.867188 50.867188 152.363281 49.746094 L 152.359375 49.746094 C 154.539062 60.53125 153.824219 61.210938 153.425781 61.585938 C 152.757812 62.21875 150.425781 64.699219 149.730469 65.4375 C 149.457031 66.882812 148.265625 73.871094 149.742188 77.917969 C 150.816406 80.855469 150.9375 87.085938 150.839844 91.804688 C 152.332031 87.648438 153.839844 82.789062 153.648438 80.867188 C 153.261719 76.972656 153.648438 69.683594 153.664062 69.375 L 153.675781 69.121094 L 153.8125 68.90625 C 153.835938 68.863281 156.40625 64.652344 157.53125 61.140625 C 157.789062 60.34375 157.886719 59.460938 157.886719 58.578125 C 157.886719 56.300781 157.234375 54.027344 156.992188 53.269531 Z M 156.992188 53.269531"/><path fill="#979797" d="M 243.984375 204.21875 C 243.984375 204.21875 237.550781 227.660156 215.582031 233.710938 C 193.617188 239.765625 175.941406 235.058594 175.941406 235.058594 C 198.21875 236.921875 213.75 224.441406 213.75 224.441406 C 210.660156 225.34375 203.96875 225.46875 203.96875 225.46875 C 209.890625 224.054688 216.191406 216.96875 216.191406 216.96875 C 203.96875 225.46875 188.789062 225.214844 188.789062 225.214844 C 211.945312 218.773438 215.582031 205.34375 215.582031 205.34375 L 215.242188 204.425781 L 188.148438 210.070312 L 193.363281 195.710938 L 206.03125 191.210938 L 213.011719 198.402344 L 209.632812 189.277344 L 208.472656 186.621094 L 202.210938 187.476562 L 179.632812 161.03125 L 187.632812 157.722656 C 185.191406 148.707031 181.867188 145.199219 181.867188 145.199219 C 188.558594 149.6875 195.984375 160.996094 201.496094 170.632812 L 201.140625 169.828125 L 194.84375 157.972656 C 209.128906 177.289062 219.589844 195.332031 219.589844 195.332031 C 212.820312 173.691406 204.566406 164.675781 204.566406 164.675781 C 208.417969 152.3125 206.890625 144.328125 206.890625 144.328125 C 212.125 153.601562 219.589844 171.117188 219.589844 171.117188 C 213.335938 141.75 196.320312 111.269531 196.320312 111.269531 L 205.390625 120.882812 L 214.910156 134.796875 L 230.09375 169.1875 Z M 167.4375 225.234375 C 179.785156 223.949219 191.597656 216.992188 191.597656 216.992188 C 147.0625 224.71875 123.179688 211.550781 123.179688 211.550781 C 147.363281 239.339844 180.554688 225.234375 180.554688 225.234375 C 174.640625 225.753906 167.4375 225.234375 167.4375 225.234375 Z M 168.917969 123.71875 C 168.917969 123.71875 154.316406 109.515625 142.734375 103.734375 C 142.734375 103.734375 148.039062 104.65625 155.9375 107.230469 C 155.9375 107.230469 145.308594 92.589844 128.066406 91.792969 C 128.066406 91.792969 127.554688 77.347656 132.695312 75.804688 C 137.839844 74.257812 142.734375 77.089844 142.734375 77.089844 C 142.734375 77.089844 136.199219 65.007812 123.257812 71.5625 L 121.441406 80.082031 L 116.613281 101.914062 L 110.152344 116.207031 L 106.070312 124.226562 L 106.070312 129.136719 C 106.070312 129.136719 113.140625 110.796875 129.351562 109.652344 C 145.566406 108.519531 168.917969 123.71875 168.917969 123.71875 Z M 168.917969 123.71875"/><path fill="#0D1016" d="M 278.003906 220.832031 C 277.855469 220.242188 262.839844 161.628906 232.078125 126.371094 C 231.984375 123.636719 231.34375 111.832031 227.472656 107.960938 C 223.667969 104.148438 212.769531 97.464844 211.355469 96.601562 C 205.839844 91.546875 158.417969 48.285156 139.195312 38.074219 C 135.058594 35.878906 129.851562 37.066406 127.089844 40.84375 C 124.078125 44.96875 122.246094 51.8125 121.652344 61.183594 C 120.007812 86.949219 116.714844 101.386719 109.496094 114.449219 C 101.359375 129.179688 99.574219 145.082031 104.339844 160.445312 C 109.609375 177.46875 114.90625 205.878906 114.640625 223.964844 L 114.628906 224.945312 L 115.53125 225.304688 C 115.707031 225.378906 135.066406 233.003906 164.34375 236.414062 C 173.695312 237.503906 183.25 238.054688 192.734375 238.054688 C 194.367188 238.054688 195.867188 238.039062 197.300781 238.007812 L 197.324219 238.109375 L 197.832031 238 C 225.558594 237.429688 252.242188 232.21875 277.140625 222.511719 L 278.308594 222.058594 Z M 164.734375 233.59375 C 139.269531 230.632812 121.488281 224.476562 117.5 223.007812 C 117.566406 204.617188 112.257812 176.390625 107.058594 159.605469 C 102.53125 144.996094 104.234375 129.859375 111.988281 115.828125 C 118.867188 103.367188 122.25 89.835938 124.046875 67.582031 C 124.550781 66.578125 126.859375 62.441406 131.152344 60.835938 C 134.074219 59.742188 137.375 60.042969 140.964844 61.722656 C 142.542969 62.457031 144.660156 63.765625 147.25 65.601562 C 146.851562 67.925781 145.929688 74.507812 147.480469 78.742188 C 149.132812 83.246094 148.207031 97.535156 148.199219 97.679688 L 147.628906 106.34375 L 150.9375 98.308594 C 151.5 96.933594 156.460938 84.722656 156.050781 80.621094 C 155.820312 78.292969 155.894531 74.5 155.960938 72.316406 C 163.828125 78.792969 173.089844 87.335938 181.515625 95.898438 C 182.054688 99.738281 184.238281 115.027344 185.070312 120.210938 C 185.992188 125.957031 185.074219 134.035156 185.058594 134.117188 L 183.949219 143.710938 L 187.773438 134.851562 C 188.359375 133.496094 193.484375 121.46875 193.484375 117.09375 C 193.484375 114.695312 192.582031 110.386719 191.679688 106.691406 C 201.316406 117.371094 208.730469 127.109375 213.167969 134.925781 C 222.132812 150.714844 233.867188 181.480469 242.152344 204.585938 C 241.335938 206.253906 240.425781 207.886719 239.453125 209.433594 C 230.980469 222.90625 216.871094 231.5625 197.519531 235.167969 C 186.585938 235.375 175.550781 234.847656 164.734375 233.59375 Z M 137.859375 40.585938 C 140.863281 42.183594 144.8125 44.761719 149.589844 48.238281 C 150.734375 53.699219 151.542969 58.769531 151.488281 60.101562 C 150.738281 60.847656 149.328125 62.339844 148.628906 63.082031 C 146.003906 61.242188 143.832031 59.914062 142.167969 59.140625 C 139.597656 57.933594 137.121094 57.332031 134.765625 57.332031 C 133.171875 57.332031 131.628906 57.609375 130.152344 58.164062 C 128.046875 58.953125 126.125 60.273438 124.4375 62.089844 C 124.457031 61.847656 124.46875 61.609375 124.484375 61.363281 C 125.046875 52.535156 126.695312 46.195312 129.382812 42.519531 C 131.316406 39.878906 134.957031 39.046875 137.859375 40.585938 Z M 160.132812 56.277344 C 165.699219 60.6875 172.070312 65.945312 179.089844 71.925781 C 181.898438 79.792969 184.015625 87.425781 184.015625 89.710938 C 184.015625 89.976562 183.988281 90.101562 183.96875 90.164062 C 183.570312 91.355469 183.074219 92.324219 182.660156 93.015625 C 173.925781 84.195312 164.433594 75.511719 156.5 69.089844 C 157.320312 67.644531 158.945312 64.625 159.828125 61.878906 C 160.324219 60.335938 160.425781 58.453125 160.132812 56.277344 Z M 190.601562 94.597656 C 188.320312 98.335938 187.511719 101.089844 187.507812 101.105469 L 187.386719 101.507812 L 187.453125 101.726562 L 187.460938 102.085938 L 187.601562 102.238281 C 188.171875 104.320312 190.652344 113.535156 190.652344 117.09375 C 190.652344 118.515625 189.835938 121.542969 188.332031 125.726562 C 188.304688 123.457031 188.15625 121.457031 187.886719 119.765625 C 187.019531 114.386719 184.71875 98.230469 184.355469 95.636719 C 184.867188 94.933594 185.921875 93.328125 186.679688 91.074219 C 187.40625 88.886719 185.386719 81.738281 183.355469 75.582031 C 185.4375 77.371094 187.34375 79.027344 189.140625 80.605469 L 191.113281 91.957031 C 191.261719 92.863281 191.085938 93.804688 190.601562 94.597656 Z M 157.121094 61.011719 C 156.109375 64.160156 153.894531 67.929688 153.449219 68.675781 L 153.257812 68.980469 L 153.230469 69.410156 C 153.140625 71.21875 152.871094 77.390625 153.222656 80.90625 C 153.347656 82.171875 152.671875 85.050781 151.304688 89.144531 C 151.300781 84.921875 151.058594 80.238281 150.15625 77.765625 C 148.753906 73.925781 149.84375 67.25 150.136719 65.640625 L 150.355469 65.410156 C 151.261719 64.449219 153.148438 62.449219 153.730469 61.902344 C 154.257812 61.410156 154.972656 60.738281 153.019531 50.773438 C 154.320312 51.753906 155.59375 52.738281 156.625 53.535156 C 156.902344 54.445312 157.460938 56.507812 157.460938 58.585938 C 157.453125 59.5 157.34375 60.316406 157.121094 61.011719 Z M 243.832031 200.820312 C 235.734375 178.398438 224.402344 148.921875 215.652344 133.511719 C 209.292969 122.3125 198.5 109.785156 190.492188 101.175781 C 190.644531 100.773438 190.898438 100.140625 191.269531 99.34375 C 191.769531 98.273438 192.355469 97.179688 193.023438 96.089844 C 193.867188 94.707031 194.1875 93.0625 193.90625 91.464844 L 192.535156 83.582031 C 197.46875 87.921875 201.648438 91.667969 204.34375 94.101562 C 207.035156 96.527344 208.820312 98.15625 209.363281 98.652344 L 209.5625 98.832031 L 209.75 98.96875 C 209.867188 99.039062 221.683594 106.203125 225.453125 109.976562 C 228.011719 112.539062 229.132812 121.75 229.242188 126.949219 L 229.25 127.476562 L 229.601562 127.871094 C 235.355469 134.410156 240.960938 142.269531 246.265625 151.230469 C 247.03125 154.242188 252.761719 178.71875 243.832031 200.820312 Z M 202.496094 105.949219 C 203.042969 107.558594 208.003906 121.707031 215.074219 122.496094 C 215.375 122.53125 215.6875 122.550781 215.996094 122.550781 C 221.457031 122.550781 223.976562 116.871094 224.542969 113.871094 L 224.757812 112.742188 L 201.492188 102.964844 Z M 165.113281 93.683594 C 165.257812 94.617188 165.945312 98.140625 168.382812 100.003906 C 169.597656 100.929688 171.050781 101.296875 172.714844 101.101562 C 172.859375 101.316406 173.007812 101.523438 173.152344 101.730469 C 173.242188 101.875 173.335938 102.015625 173.425781 102.164062 C 173.707031 102.617188 174.003906 103.085938 174.363281 103.546875 L 175.230469 104.664062 L 175.140625 103.253906 C 175.101562 102.605469 175.007812 101.917969 174.820312 100.992188 C 174.71875 100.632812 174.613281 100.277344 174.496094 99.925781 L 174.4375 99.746094 C 174.335938 99.445312 174.230469 99.128906 174.082031 98.847656 C 173.757812 98.140625 173.425781 97.449219 172.976562 96.832031 C 172.925781 96.757812 172.875 96.683594 172.824219 96.609375 C 172.664062 96.363281 172.492188 96.117188 172.285156 95.886719 L 171.527344 95.023438 C 170.378906 93.875 169.039062 92.972656 167.648438 92.410156 C 165.996094 91.753906 164.445312 91.5625 163.039062 91.839844 L 161.574219 92.125 L 162.96875 92.671875 C 163.695312 92.953125 164.398438 93.285156 165.113281 93.683594 Z M 198.742188 163.210938 C 191.390625 151.144531 182.761719 141.394531 173.085938 134.230469 C 160.941406 125.25 147.140625 120.355469 132.066406 119.683594 C 127.367188 119.472656 122.804688 120.464844 118.875 122.550781 C 111.746094 126.335938 104.082031 134.664062 108.058594 152.851562 C 111.671875 169.359375 111.902344 170.289062 113.011719 174.738281 L 113.09375 175.070312 C 113.984375 178.644531 115.464844 184.628906 119.441406 201.585938 L 119.578125 202.160156 L 120.085938 202.480469 C 120.949219 202.996094 128.945312 207.640625 144.25 210.445312 C 151.621094 211.792969 159.566406 212.480469 167.871094 212.480469 C 182.71875 212.480469 198.5 210.296875 214.777344 206.003906 L 216.101562 205.664062 L 215.808594 204.324219 C 215.765625 204.117188 211.210938 183.683594 198.742188 163.210938 Z M 212.101562 203.757812 C 208.171875 204.753906 204.371094 205.605469 200.703125 206.320312 L 206.339844 195.289062 Z M 130.863281 204.0625 L 136.597656 194.628906 L 143.0625 207.070312 L 149.1875 196.339844 L 155.214844 208.867188 L 162.902344 197.191406 L 170.328125 209.039062 L 178.277344 197.394531 L 186 208.589844 C 168.273438 210.585938 154.425781 209.410156 144.890625 207.671875 C 139.191406 206.636719 134.5 205.308594 130.863281 204.0625 Z M 130.71875 204.007812 C 126.640625 202.601562 123.910156 201.292969 122.605469 200.613281 L 125.308594 193.53125 Z M 131.933594 122.53125 C 164.789062 124 185.058594 146.246094 196.285156 164.652344 C 197.929688 167.347656 199.503906 170.15625 201.003906 173.0625 L 191.808594 171.917969 L 191.234375 159.519531 L 180.019531 160.554688 L 178.433594 145.886719 L 165.242188 150.371094 L 159.859375 134.484375 L 148.90625 144.277344 L 141.839844 128.261719 L 132.1875 142.5 L 123.378906 126.378906 L 118.894531 142.839844 L 111.722656 134.800781 L 111.722656 146.460938 L 109.859375 144.921875 C 109.398438 133.308594 115.222656 127.710938 120.207031 125.066406 C 123.683594 123.226562 127.738281 122.34375 131.933594 122.53125 Z M 201.152344 183.332031 L 201.152344 173.359375 C 202.945312 176.867188 204.628906 180.511719 206.183594 184.277344 Z M 129.683594 153.816406 C 129.902344 153.839844 130.121094 153.867188 130.339844 153.894531 C 129.683594 163.453125 132.496094 171.417969 132.527344 171.503906 L 133.003906 172.828125 L 133.355469 171.460938 C 134.824219 165.816406 137.023438 160.179688 138.667969 156.320312 C 138.953125 156.449219 139.214844 156.570312 139.460938 156.6875 C 136.816406 168.597656 140.796875 179.882812 140.835938 179.996094 L 141.3125 181.324219 L 141.667969 179.957031 C 143.582031 172.570312 146.808594 165.113281 148.074219 162.332031 C 148.292969 162.515625 148.527344 162.707031 148.757812 162.90625 C 145.945312 174.957031 150 186.472656 150.042969 186.585938 L 150.515625 187.914062 L 150.871094 186.546875 C 152.472656 180.390625 154.96875 174.214844 156.480469 170.726562 C 158.152344 172.6875 159.84375 174.851562 161.511719 177.167969 C 160.417969 179.941406 157.054688 188.539062 153.460938 198.664062 L 149.398438 190.207031 L 143.167969 201.113281 L 136.773438 188.820312 L 130.988281 198.34375 L 124.910156 186.5625 L 121.144531 196.417969 C 117.988281 183.03125 116.675781 177.726562 115.878906 174.515625 L 115.75 173.992188 C 114.820312 170.261719 114.507812 168.984375 112.242188 158.6875 C 114.292969 157.113281 120.679688 152.882812 129.683594 153.816406 Z M 200.4375 206.375 C 195.402344 207.347656 190.613281 208.066406 186.074219 208.578125 L 193.394531 196.503906 Z M 200.4375 206.375"/><g fill="#1F7DD5"><use x="6.188" y="262.134" xmlns:xlink="http://www.w3.org/1999/xlink" xlink:href="#b" xlink:type="simple" xlink:actuate="onLoad" xlink:show="embed"/></g><g fill="#1F7DD5"><use x="31.199" y="277.416" xmlns:xlink="http://www.w3.org/1999/xlink" xlink:href="#c" xlink:type="simple" xlink:actuate="onLoad" xlink:show="embed"/></g><g fill="#1F7DD5"><use x="73.506" y="296.155" xmlns:xlink="http://www.w3.org/1999/xlink" xlink:href="#d" xlink:type="simple" xlink:actuate="onLoad" xlink:show="embed"/></g><g fill="#1F7DD5"><use x="112.704" y="307.863" xmlns:xlink="http://www.w3.org/1999/xlink" xlink:href="#e" xlink:type="simple" xlink:actuate="onLoad" xlink:show="embed"/></g><g fill="#1F7DD5"><use x="173.156" y="316.087" xmlns:xlink="http://www.w3.org/1999/xlink" xlink:href="#f" xlink:type="simple" xlink:actuate="onLoad" xlink:show="embed"/></g><g fill="#1F7DD5"><use x="214.888" y="315.286" xmlns:xlink="http://www.w3.org/1999/xlink" xlink:href="#g" xlink:type="simple" xlink:actuate="onLoad" xlink:show="embed"/></g><g fill="#1F7DD5"><use x="256.062" y="309.27" xmlns:xlink="http://www.w3.org/1999/xlink" xlink:href="#h" xlink:type="simple" xlink:actuate="onLoad" xlink:show="embed"/></g><g fill="#1F7DD5"><use x="295.476" y="298.444" xmlns:xlink="http://www.w3.org/1999/xlink" xlink:href="#i" xlink:type="simple" xlink:actuate="onLoad" xlink:show="embed"/></g><g fill="#1F7DD5"><use x="334.29" y="282.38" xmlns:xlink="http://www.w3.org/1999/xlink" xlink:href="#j" xlink:type="simple" xlink:actuate="onLoad" xlink:show="embed"/></g><path transform="scale(.802) rotate(30.891 -404.844 227.887)" fill="none" d="M 20.280298 85.94732 C 22.925134 85.738511 26.619814 85.633777 31.360158 85.63562 C 31.497876 88.351366 31.708905 90.563517 31.986565 92.270395 C 32.264224 93.977272 32.45976 95.233816 32.559812 96.03667 C 32.664044 96.837023 32.75274 97.374236 32.824219 97.654988 L 29.583375 97.550637 C 22.267787 97.551372 14.984771 98.213709 7.734327 99.537647 C 5.363953 100.02496 3.20649 100.583545 1.252759 101.207542 C 2.927206 88.315089 5.137086 74.761757 7.893259 60.546722 C 10.642753 46.330008 12.997616 34.375631 14.94531 24.69109 L 33.764538 22.184016 C 27.282806 49.638891 23.501691 66.504712 22.422871 72.7748 C 21.339871 79.047389 20.630134 83.439348 20.280298 85.94732 Z M 20.280298 85.94732" stroke="#0D1016" stroke-width="3.145"/><path transform="matrix(.73025 .3316 -.3316 .73025 64.69 203.66)" fill="none" d="M 45.051955 52.077362 C 45.052564 46.294567 43.382042 43.404946 40.038372 43.404064 C 35.785724 43.404043 31.951895 45.492615 28.538899 49.674216 C 25.821965 53.020872 23.486696 57.585021 21.533094 63.366662 C 19.999916 68.106869 19.233531 72.568428 19.231925 76.746906 C 19.236497 79.537128 20.420389 81.626016 22.78763 83.02244 C 23.484394 83.508436 24.286054 83.754229 25.195033 83.753369 C 28.399232 83.753391 31.239052 82.656453 33.712479 80.458119 C 36.183484 78.266234 38.257235 75.564685 39.931309 72.35992 C 41.603369 69.15072 42.876047 65.721681 43.745315 62.063931 C 44.619018 58.404168 45.055236 55.07679 45.051955 52.077362 Z M 59.896025 45.492066 C 59.896003 49.744714 59.288344 54.449804 58.066599 59.604914 C 56.846867 64.764459 55.193972 69.500185 53.101057 73.820555 C 51.010156 78.14536 48.587684 82.010912 45.83767 85.426082 C 43.085642 88.836817 40.211272 91.730738 37.212546 94.10341 C 31.011884 98.978471 25.052806 101.416919 19.339746 101.416739 C 14.53123 101.417713 10.733943 99.675692 7.943448 96.192688 C 4.876162 92.359289 3.345335 86.785112 3.344519 79.467736 C 3.347572 71.522743 5.189783 62.951241 8.886471 53.751625 C 12.578724 44.554022 17.421223 36.888217 23.413969 30.754211 C 29.897441 24.204803 36.690038 20.927836 43.800222 20.930165 C 49.652752 20.931205 53.936738 23.297404 56.656208 28.037632 C 58.814516 31.871891 59.893783 37.688557 59.896025 45.492066 Z M 59.896025 45.492066" stroke="#0D1016" stroke-width="3.145"/><path transform="scale(.802) rotate(16.888 -857.73 543.832)" fill="none" d="M 20.38317 82.708856 L 16.09931 98.073415 C 14.492825 98.281176 12.632671 98.525228 10.503451 98.805156 C 8.378893 99.083668 6.270147 99.3472 4.180459 99.589676 C 2.09077 99.832151 -0.0688261 100.095851 -2.301161 100.371453 C 0.558673 90.89583 2.981522 82.881394 4.962725 76.329561 C 6.950005 69.780974 8.573032 64.396626 9.827146 60.177933 C 11.082676 55.963901 12.317317 51.781661 13.537144 47.634458 C 14.758386 43.491917 15.939018 39.483867 17.091189 35.616802 C 18.24336 31.749736 19.266456 28.211993 20.175873 25.00399 C 33.064306 24.099412 42.890726 22.984253 49.650472 21.659927 C 49.02659 28.558115 48.50435 36.713246 48.082337 46.12066 C 47.176974 64.867576 46.412815 82.15148 45.783783 97.969125 C 43.695845 98.317962 41.658174 98.631178 39.67077 98.908773 C 37.683366 99.186367 35.625637 99.500582 33.502245 99.850002 C 31.378853 100.199422 29.442883 100.512303 27.70041 100.79189 C 28.468192 94.099431 29.12713 88.071192 29.687959 82.709003 Z M 22.892936 72.046619 L 30.62801 71.520568 C 30.628501 71.103028 30.681668 70.389541 30.782849 69.381519 C 30.887276 68.367422 31.011258 67.199775 31.150134 65.879993 C 31.705928 58.422202 32.298434 51.487729 32.927652 45.076573 L 33.661178 35.773101 L 31.98811 35.878913 Z M 22.892936 72.046619" stroke="#0D1016" stroke-width="3.145"/><path transform="scale(.802) rotate(9.688 -1598.694 1071.568)" fill="none" d="M 16.830651 22.603385 L 19.858998 22.60028 C 21.252264 22.599604 25.15688 22.461732 31.567224 22.182684 C 32.542229 27.199422 33.448619 31.872117 34.284756 36.191166 C 36.51553 48.592898 38.050691 56.572534 38.884617 60.126094 C 39.16393 58.665266 39.476035 56.991314 39.827373 55.113022 C 40.173091 53.230748 40.558507 51.26264 40.978001 49.204717 C 41.392694 47.147613 41.813594 45.040038 42.230279 42.878831 C 42.927094 39.464182 44.355034 32.60432 46.517261 22.288823 L 59.580601 20.720853 C 51.985595 55.913166 47.246165 81.175609 45.36711 96.507363 C 44.531946 96.506645 41.653244 97.096896 36.741423 98.28128 C 31.829603 99.465664 28.887545 100.234728 27.908809 100.579689 C 26.517306 81.487763 24.985177 67.968668 23.312422 60.022402 C 23.10384 61.347629 22.824877 62.897338 22.476351 64.676328 C 22.127006 66.450518 21.779766 68.352816 21.428191 70.374439 C 20.105628 77.967355 18.364868 87.133748 16.204272 97.864016 L 0.523571 101.52418 C 8.466885 63.683284 13.101179 37.341871 14.425634 22.495139 C 15.401201 22.565769 16.202873 22.601851 16.830651 22.603385 Z M 16.830651 22.603385" stroke="#0D1016" stroke-width="3.145"/><path transform="scale(.802) rotate(-.771 21893.814 -15799.226)" fill="none" d="M 15.157414 108.73342 C 15.994896 104.414324 16.794005 101.137117 17.559478 98.911605 C 11.844435 98.284278 6.723798 95.112519 2.197568 89.396328 L 9.932918 73.820497 C 10.905222 75.772257 12.197429 77.479899 13.799799 78.94329 C 16.517238 81.522543 18.799051 82.809976 20.645173 82.810461 C 22.491295 82.810946 24.165149 82.219716 25.661866 81.036705 C 27.158649 79.848824 27.912089 77.793636 27.90764 74.866075 C 27.910484 72.844627 26.342602 70.266229 23.203992 67.130881 C 21.882258 65.807655 20.420206 64.414347 18.817836 62.950955 C 17.210597 61.487498 15.750445 59.952955 14.427575 58.352064 C 11.287679 54.588333 9.723621 51.001679 9.720921 47.582165 C 9.723573 43.402839 11.53498 39.467048 15.15514 35.774791 C 18.292389 32.494947 22.440098 29.779128 27.598398 27.617593 C 28.363198 23.99408 29.410316 20.023649 30.730076 15.701301 L 45.365747 14.027745 L 41.080431 24.79843 C 47.629235 25.003451 51.883399 27.408539 53.833247 32.008691 C 54.53162 33.683987 54.879604 35.335085 54.877002 36.976594 C 54.879335 38.613298 54.808397 39.903172 54.669126 40.841411 C 54.529789 41.78452 54.389796 42.776331 54.253953 43.821779 L 38.883189 47.27312 L 39.305239 44.867629 C 39.305113 42.704881 38.887571 41.155139 38.047808 40.213469 C 37.212914 39.271865 36.342444 38.802274 35.436396 38.804696 C 34.530413 38.802248 33.695321 38.961498 32.926379 39.272641 C 32.162242 39.58872 31.430624 40.022141 30.731393 40.582646 C 29.269685 41.697933 28.536339 42.983765 28.536095 44.449948 C 28.535917 45.911261 29.025836 47.150229 30.001112 48.157046 C 30.976323 49.168733 32.179973 50.217591 33.607323 51.293814 C 35.034607 52.374908 36.58714 53.559979 38.260051 54.848962 C 39.932962 56.137944 41.466429 57.65399 42.85558 59.397034 C 46.270324 63.369047 47.98055 68.039041 47.981455 73.40208 C 47.977641 79.115771 46.205259 84.133461 42.649698 88.454952 C 39.232401 92.637043 34.876803 95.598489 29.582903 97.339289 C 28.886042 102.429903 28.538549 105.810607 28.535553 107.481337 Z M 15.157414 108.73342" stroke="#0D1016" stroke-width="3.145"/><path transform="scale(.802) rotate(-7.963 2232.436 -1677.673)" fill="none" d="M 0.835344 101.208761 C 8.293757 64.555364 12.82024 38.419702 14.42309 22.812771 C 21.117204 23.370489 26.901272 23.648447 31.775295 23.646644 C 28.361069 38.139535 26.096296 48.317808 24.982326 54.171816 L 35.540203 52.91428 C 36.517471 47.896887 37.403492 43.004435 38.204438 38.227952 C 39.009533 33.456966 40.033989 28.559289 41.291604 23.541769 C 44.079185 23.0563 47.037245 22.688122 50.174756 22.443406 C 53.312266 22.198691 55.473304 22.043611 56.653719 21.972668 L 58.433689 21.764282 C 55.019377 32.917817 51.675319 48.561508 48.396018 68.699502 C 46.79407 77.760658 45.330486 87.028055 44.009414 96.50719 L 27.280913 98.386793 C 28.190159 94.136934 29.006434 90.129808 29.739386 86.366763 C 30.472337 82.603719 31.200565 78.87444 31.933717 75.180276 C 32.666869 71.486112 33.277562 68.315801 33.765795 65.669344 L 23.311685 66.606969 C 21.709135 75.461484 19.721162 85.840772 17.350563 97.759979 Z M 0.835344 101.208761" stroke="#0D1016" stroke-width="3.145"/><path transform="matrix(.7744 -.2086 .2086 .7744 234.993 231.056)" fill="none" d="M 20.383648 82.706527 L 16.098353 98.072023 C 14.493652 98.28038 12.631901 98.525424 10.503695 98.804622 C 8.380192 99.085086 6.272429 99.344569 4.179139 99.587774 C 2.090552 99.832246 -0.0680409 100.09317 -2.297908 100.375249 C 0.558494 90.894819 2.979484 82.880988 4.966328 76.329053 C 6.951905 69.781821 8.573742 64.397663 9.825869 60.180016 C 11.082699 55.963637 12.319989 51.782347 13.537737 47.636147 C 14.755486 43.489947 15.941199 39.481401 17.088906 35.613943 C 18.241317 31.747752 19.269595 28.211308 20.173739 25.00461 C 33.068412 24.09967 42.892689 22.983051 49.650004 21.660722 C 49.027386 28.559962 48.501381 36.710974 48.084831 46.12226 C 47.177577 64.864325 46.41016 82.150969 45.78638 97.968082 C 43.694704 98.317651 41.653321 98.630324 39.671636 98.908636 C 37.683981 99.190385 35.627222 99.503961 33.501359 99.849364 C 31.374229 100.199471 29.443912 100.511797 27.699735 100.788512 C 28.467399 94.099846 29.127348 88.073223 29.68555 82.705207 Z M 22.892895 72.043032 L 30.629263 71.524163 C 30.626242 71.104679 30.678251 70.387276 30.784022 69.376658 C 30.888527 68.370743 31.011322 67.203296 31.151142 65.879019 C 31.707084 58.422086 32.299679 51.484492 32.926394 45.075645 L 33.656411 35.774019 L 31.98389 35.878356 Z M 22.892895 72.043032" stroke="#0D1016" stroke-width="3.145"/><path transform="scale(.802) rotate(-22.213 874.772 -701.823)" fill="none" d="M 32.614191 99.325548 C 27.248734 81.698664 24.459268 71.626335 24.252969 69.116751 L 22.89326 69.534809 C 22.335695 72.74259 21.497794 77.203768 20.385906 82.915674 C 19.267667 88.630248 18.398275 93.19431 17.771379 96.610527 L 0.416673 101.103311 C 7.664323 66.051832 12.088454 41.174402 13.69542 26.468354 C 21.7795 23.961286 30.836869 22.703948 40.872863 22.709042 C 48.398111 22.704258 52.859189 25.320352 54.250764 30.544624 C 54.669795 32.146739 54.878017 34.136265 54.879113 36.504183 C 54.880208 38.8721 54.391493 41.434582 53.414806 44.187119 C 52.43812 46.939656 51.115882 49.572132 49.445426 52.078196 C 45.957436 57.167053 41.675698 61.068972 36.58751 63.789289 C 39.302368 69.6381 41.723796 75.161908 43.849126 80.354363 C 45.974456 85.546817 47.771003 89.921078 49.234258 93.475304 Z M 33.659903 37.551231 L 29.060807 37.656609 L 25.608281 54.691997 C 28.398749 54.41626 31.918146 52.638904 36.16647 49.359926 C 40.556346 46.017748 42.754079 43.264024 42.753319 41.101424 C 42.752444 39.080826 40.838691 37.931074 37.005709 37.654836 C 35.888299 37.582599 34.776036 37.549291 33.659903 37.551231 Z M 33.659903 37.551231" stroke="#0D1016" stroke-width="3.145"/><path transform="matrix(.69742 -.396 .396 .69742 294.295 211.94)" fill="none" d="M 51.744309 97.865055 C 48.397056 97.723208 44.895351 97.656093 41.237365 97.657069 C 37.581783 97.653809 33.728246 97.722984 29.687631 97.865167 C 28.295216 88.874745 26.897776 79.153342 25.506184 68.701534 L 23.521003 70.895734 C 23.033962 73.055616 22.492686 75.705595 21.899581 78.841433 C 21.306475 81.977272 20.699515 85.127648 20.069654 88.298627 C 19.444029 91.47201 18.782761 94.865998 18.085277 98.491466 L 0.732862 101.106623 C 8.257099 66.261676 12.750361 40.197575 14.216883 22.916726 C 15.889684 23.127205 17.750821 23.282191 19.808763 23.386495 C 21.866706 23.490799 23.869122 23.613983 25.818414 23.751812 C 27.771941 23.892046 29.827371 23.961318 31.984705 23.959627 C 31.915394 24.239528 31.813528 24.76419 31.670636 25.528802 C 31.531979 26.29582 31.358146 27.233298 31.148564 28.352112 C 30.941386 29.466691 30.71461 30.704566 30.470642 32.0615 C 30.226673 33.418435 29.880049 35.232372 29.424703 37.494265 C 28.971187 39.762798 28.396064 42.847236 27.699334 46.74758 L 28.328555 46.645568 C 30.277698 43.64677 32.301284 40.477404 34.390843 37.13266 C 38.570751 30.510832 41.499113 25.945261 43.169289 23.43778 C 51.187957 22.809836 58.290898 22.009209 64.495629 21.034641 C 52.370007 37.477818 44.076951 49.291927 39.614631 56.470327 C 41.150689 63.649183 42.995435 70.600039 45.159744 77.323471 C 47.317413 84.048734 49.512268 90.895929 51.744309 97.865055 Z M 51.744309 97.865055" stroke="#0D1016" stroke-width="3.145"/></svg>